HIERARCHY
ROOT SpineBase
{
  OFFSET 0.000000 0.000000 0.000000
  CHANNELS 6 Xposition Yposition Zposition Zrotation Xrotation Yrotation
  JOINT SpineMid
  {
    OFFSET -0.000000 27.681777 0.000000
    CHANNELS 3 Zrotation Xrotation Yrotation
    JOINT SpineShoulder
    {
      OFFSET 0.242417 20.600678 -0.442545
      CHANNELS 3 Zrotation Xrotation Yrotation
      JOINT Neck
      {
        OFFSET 0.122923 6.850555 -0.377829
        CHANNELS 3 Zrotation Xrotation Yrotation
        JOINT Head
        {
          OFFSET -4.032322 12.568386 -0.339945
          CHANNELS 3 Zrotation Xrotation Yrotation
          End Site
          {
            OFFSET 0 0 0
          }
        }
      }
      JOINT ShoulderLeft
      {
        OFFSET -16.074308 -3.708144 6.729884
        CHANNELS 3 Zrotation Xrotation Yrotation
        JOINT ElbowLeft
        {
          OFFSET -3.419005 -24.390234 1.584704
          CHANNELS 3 Zrotation Xrotation Yrotation
          JOINT WristLeft
          {
            OFFSET 0.002428 -20.190586 -5.825169
            CHANNELS 3 Zrotation Xrotation Yrotation
            JOINT HandLeft
            {
              OFFSET 0.472232 -6.737822 -1.954230
              CHANNELS 3 Zrotation Xrotation Yrotation
              JOINT HandTipLeft
              {
                OFFSET 0.107441 -6.575996 -1.263859
                CHANNELS 3 Zrotation Xrotation Yrotation
                End Site
                {
                  OFFSET 0 0 0
                }
              }
              JOINT ThumbLeft
              {
                OFFSET 3.305710 -1.014305 -2.675710
                CHANNELS 3 Zrotation Xrotation Yrotation
                End Site
                {
                  OFFSET 0 0 0
                }
              }
            }
          }
        }
      }
      JOINT ShoulderRight
      {
        OFFSET 13.958637 -2.075608 -5.597777
        CHANNELS 3 Zrotation Xrotation Yrotation
        JOINT ElbowRight
        {
          OFFSET 6.996655 -22.834319 1.500163
          CHANNELS 3 Zrotation Xrotation Yrotation
          JOINT WristRight
          {
            OFFSET -1.685530 -23.627861 -5.511141
            CHANNELS 3 Zrotation Xrotation Yrotation
            JOINT HandRight
            {
              OFFSET -2.066699 -6.559233 -0.562464
              CHANNELS 3 Zrotation Xrotation Yrotation
              JOINT HandTipRight
              {
                OFFSET 0.590734 -6.299625 -0.518801
                CHANNELS 3 Zrotation Xrotation Yrotation
                End Site
                {
                  OFFSET 0 0 0
                }
              }
              JOINT ThumbRight
              {
                OFFSET 3.289051 -0.857073 -1.214390
                CHANNELS 3 Zrotation Xrotation Yrotation
                End Site
                {
                  OFFSET 0 0 0
                }
              }
            }
          }
        }
      }
    }
  }
  JOINT HipLeft
  {
    OFFSET -6.266181 -0.022496 -0.685247
    CHANNELS 3 Zrotation Xrotation Yrotation
    JOINT KneeLeft
    {
      OFFSET 1.060964 -36.999251 7.444727
      CHANNELS 3 Zrotation Xrotation Yrotation
      JOINT AnkleLeft
      {
        OFFSET 1.440582 -30.199313 3.796638
        CHANNELS 3 Zrotation Xrotation Yrotation
        JOINT FootLeft
        {
          OFFSET 3.581691 -6.960006 -6.455361
          CHANNELS 3 Zrotation Xrotation Yrotation
          End Site
          {
            OFFSET 0 0 0
          }
        }
      }
    }
  }
  JOINT HipRight
  {
    OFFSET 6.863549 1.611117 -5.578031
    CHANNELS 3 Zrotation Xrotation Yrotation
    JOINT KneeRight
    {
      OFFSET 3.847922 -38.225915 4.994045
      CHANNELS 3 Zrotation Xrotation Yrotation
      JOINT AnkleRight
      {
        OFFSET -0.553254 -30.194775 5.027734
        CHANNELS 3 Zrotation Xrotation Yrotation
        JOINT FootRight
        {
          OFFSET -3.668523 -3.484646 -12.318844
          CHANNELS 3 Zrotation Xrotation Yrotation
          End Site
          {
            OFFSET 0 0 0
          }
        }
      }
    }
  }
}
MOTION
Frames: 10
Frame Time: 0.033333
-31.493313 74.704701 343.848999 9.229501 3.252581 28.952190 -0.077596 -0.659806 -28.985444 -0.099409 -0.553701 0.352072 10.664476 -11.046596 -0.621529 0.000000 0.000000 0.000000 -11.457740 3.401035 -1.515108 26.324419 78.827576 -20.856792 -18.581902 5.188779 -2.679207 -5.732475 -4.285122 -10.740535 0.000000 0.000000 0.000000 0.000000 0.000000 0.000000 5.413567 31.755862 6.871069 -78.561583 18.493649 -8.729207 -3.122850 2.591812 -15.946499 -4.168719 -14.378522 -3.297955 0.000000 0.000000 0.000000 0.000000 0.000000 0.000000 -9.525509 4.642951 -29.279799 1.421946 -3.709121 0.189244 -14.137864 8.672605 18.166948 0.000000 0.000000 0.000000 -9.889974 -0.086177 -29.155267 -1.645976 3.208889 -0.064320 11.672274 -33.064428 -3.202517 0.000000 0.000000 0.000000
-31.469221 74.712659 343.848696 9.141203 3.269538 29.047420 -0.095838 -0.652676 -29.082874 -0.096662 -0.553711 0.348047 10.970240 -11.053361 -0.580462 0.000000 0.000000 0.000000 -11.335328 3.571885 -1.531470 25.928411 79.019637 -20.532004 -17.786004 4.306221 -2.470487 -8.281784 -8.063919 -12.790614 0.000000 0.000000 0.000000 0.000000 0.000000 0.000000 5.260824 32.149192 7.017457 -78.441777 18.353806 -9.173310 -2.814375 2.527664 -15.905598 -5.093919 -12.719808 -1.977359 0.000000 0.000000 0.000000 0.000000 0.000000 0.000000 -9.459076 4.591442 -29.379279 1.408715 -3.604827 0.191595 -12.598425 4.506882 14.494455 0.000000 0.000000 0.000000 -9.845899 -0.189505 -29.259329 -1.678212 3.337050 -0.060544 14.643149 -41.481642 -4.447425 0.000000 0.000000 0.000000
-31.453258 74.714623 343.864320 9.043096 3.256323 29.232137 -0.114982 -0.640889 -29.267524 -0.096705 -0.554880 0.343626 11.311187 -10.935854 -0.530344 0.000000 0.000000 0.000000 -11.150221 3.761980 -1.540860 22.879268 79.276642 -17.888676 -16.572615 4.385531 -1.881279 -9.289534 -8.596719 -13.515421 0.000000 0.000000 0.000000 0.000000 0.000000 0.000000 5.265943 32.550918 7.125903 -78.308829 18.211565 -9.643178 -2.921399 1.565997 -16.189172 -6.470042 -12.630891 -2.798874 0.000000 0.000000 0.000000 0.000000 0.000000 0.000000 -9.331072 4.586914 -29.559739 1.393181 -3.494299 0.193698 -9.298546 -0.742336 8.283905 0.000000 0.000000 0.000000 -9.762407 -0.260357 -29.444900 -1.748571 3.461190 -0.061853 16.390261 -46.079616 -4.796501 0.000000 0.000000 0.000000
-31.429868 74.715966 343.873649 8.963803 3.209913 29.413021 -0.126642 -0.637507 -29.444535 -0.094451 -0.556860 0.340878 11.672116 -10.642925 -0.468928 0.000000 0.000000 0.000000 -11.044754 3.862487 -1.535338 26.596201 78.693122 -21.095684 -20.360821 6.470854 -3.362395 -7.021651 -11.149862 -13.124049 0.000000 0.000000 0.000000 0.000000 0.000000 0.000000 5.163791 32.953867 7.235868 -78.179657 18.020838 -10.079666 -2.511378 1.515415 -16.097587 -7.921819 -13.572294 -4.152919 0.000000 0.000000 0.000000 0.000000 0.000000 0.000000 -9.209610 4.615230 -29.731870 1.337876 -2.681074 0.222502 -4.996139 -7.762131 0.324801 0.000000 0.000000 0.000000 -9.695015 -0.275643 -29.623261 -1.715930 3.619063 -0.052263 14.628234 -41.286483 -3.823392 0.000000 0.000000 0.000000
-31.401053 74.715598 343.889939 8.882214 3.151471 29.582710 -0.129650 -0.636189 -29.609105 -0.087386 -0.558430 0.338790 12.145744 -10.298265 -0.390897 0.000000 0.000000 0.000000 -11.065354 3.741087 -1.506277 29.980718 77.978428 -23.874308 -24.855278 8.930345 -4.927815 -4.458467 -15.421659 -12.978982 0.000000 0.000000 0.000000 0.000000 0.000000 0.000000 5.181040 33.252957 7.291734 -78.071586 17.870958 -10.409863 -2.263458 1.695043 -15.957283 -8.878812 -14.096324 -4.872864 0.000000 0.000000 0.000000 0.000000 0.000000 0.000000 -9.093373 4.638127 -29.892202 1.327799 -2.670715 0.220431 -4.323867 -8.352269 -0.667564 0.000000 0.000000 0.000000 -9.614980 -0.282331 -29.788286 -1.740000 3.750319 -0.049738 12.900211 -36.542976 -3.436071 0.000000 0.000000 0.000000
-31.365570 74.714762 343.889225 8.837433 3.104925 29.668329 -0.119932 -0.644392 -29.689746 -0.076963 -0.560660 0.338978 12.287041 -10.071328 -0.366498 0.000000 0.000000 0.000000 -11.067133 3.469583 -1.461112 30.271177 78.323474 -24.263392 -23.207807 7.812740 -4.388886 -2.495781 -10.723423 -10.259899 0.000000 0.000000 0.000000 0.000000 0.000000 0.000000 5.148794 33.519580 7.339523 -78.054834 17.756512 -10.682792 -2.341907 1.413474 -16.028908 -9.042142 -14.432621 -5.473832 0.000000 0.000000 0.000000 0.000000 0.000000 0.000000 -9.045019 4.643970 -29.972421 1.332437 -2.638736 0.222022 -5.242108 -4.953804 2.229328 0.000000 0.000000 0.000000 -9.588725 -0.273373 -29.873136 -1.742791 3.839616 -0.045826 10.410194 -29.466916 -2.235737 0.000000 0.000000 0.000000
-31.331537 74.717714 343.889273 8.792967 3.052581 29.645824 -0.105746 -0.650129 -29.662059 -0.068631 -0.563121 0.339091 12.388651 -9.730459 -0.334424 0.000000 0.000000 0.000000 -10.991081 3.065839 -1.395315 31.055402 78.354669 -25.110670 -23.931812 8.831826 -4.464472 3.349183 -5.707180 -5.455189 0.000000 0.000000 0.000000 0.000000 0.000000 0.000000 5.170128 33.736110 7.364006 -78.045503 17.660147 -10.905493 -2.120324 1.170661 -16.035747 -9.990051 -15.968778 -7.447731 0.000000 0.000000 0.000000 0.000000 0.000000 0.000000 -8.991215 4.626082 -29.942310 1.321013 -2.602355 0.220108 -3.781839 -3.334355 1.759681 0.000000 0.000000 0.000000 -9.531511 -0.241752 -29.845473 -1.734839 3.853930 -0.046019 7.557883 -21.529375 -0.551882 0.000000 0.000000 0.000000
-31.297942 74.723178 343.894383 8.761077 3.012522 29.614145 -0.084039 -0.661059 -29.625759 -0.058027 -0.565694 0.340157 12.322476 -9.268637 -0.302348 0.000000 0.000000 0.000000 -11.014319 2.651440 -1.336146 29.346567 78.633892 -23.714372 -23.370231 9.855164 -3.919298 5.266089 -1.098935 -3.501215 0.000000 0.000000 0.000000 0.000000 0.000000 0.000000 5.139184 33.785094 7.364194 -78.089322 17.648365 -10.904559 -2.059676 1.060224 -16.062763 -10.024341 -15.717271 -7.249353 0.000000 0.000000 0.000000 0.000000 0.000000 0.000000 -8.936202 4.634219 -29.904440 1.309129 -2.602832 0.217452 -2.440433 -1.800539 1.332797 0.000000 0.000000 0.000000 -9.499583 -0.200686 -29.811047 -1.702702 3.864900 -0.044610 4.756370 -14.187041 1.426898 0.000000 0.000000 0.000000
-31.269978 74.730710 343.897618 8.710518 2.975904 29.620932 -0.070114 -0.663894 -29.629097 -0.051488 -0.566194 0.339509 12.334240 -8.868524 -0.266127 0.000000 0.000000 0.000000 -10.897103 2.343511 -1.283890 29.109483 78.469866 -23.603687 -25.650155 11.097937 -4.530982 5.985853 5.798129 -2.259030 0.000000 0.000000 0.000000 0.000000 0.000000 0.000000 5.140262 33.854478 7.374744 -78.173726 17.602057 -10.947385 -1.469786 1.584085 -15.799843 -10.486674 -16.753519 -8.131551 0.000000 0.000000 0.000000 0.000000 0.000000 0.000000 -8.843805 4.667749 -29.905466 0.674408 -3.272688 0.073470 0.621693 0.631172 0.104890 0.000000 0.000000 0.000000 -9.385067 -0.138166 -29.804742 -1.718762 3.754272 -0.055460 2.341606 -8.290499 3.357974 0.000000 0.000000 0.000000
-31.245174 74.741371 343.898559 8.670504 2.957524 29.673180 -0.063499 -0.667804 -29.679394 -0.046124 -0.564752 0.338688 12.269896 -8.568918 -0.244329 0.000000 0.000000 0.000000 -10.779286 2.253840 -1.262001 32.230829 77.028794 -26.114926 -32.495018 14.115732 -6.419367 10.786765 3.549208 0.294674 0.000000 0.000000 0.000000 0.000000 0.000000 0.000000 5.155498 33.839632 7.369799 -78.207913 17.547460 -10.937246 -1.441467 0.700916 -16.045663 -10.991110 -17.991550 -9.973918 0.000000 0.000000 0.000000 0.000000 0.000000 0.000000 -8.774696 4.699687 -29.955147 0.562469 -3.313491 0.052080 2.448013 -0.849073 -2.247358 0.000000 0.000000 0.000000 -9.274796 -0.099855 -29.844106 -1.801289 3.651714 -0.072735 0.576768 -4.141473 4.845010 0.000000 0.000000 0.000000
